<svg xmlns="http://www.w3.org/2000/svg" viewBox="0 0 1440 320"><path fill="#ffffff" fill-opacity="1" d="M0,224L16,208C32,192,64,160,96,154.7C128,149,160,171,192,154.7C224,139,256,85,288,90.7C320,96,352,160,384,208C416,256,448,288,480,250.7C512,213,544,107,576,96C608,85,640,171,672,213.3C704,256,736,256,768,256C800,256,832,256,864,218.7C896,181,928,107,960,85.3C992,64,1024,96,1056,101.3C1088,107,1120,85,1152,64C1184,43,1216,21,1248,21.3C1280,21,1312,43,1344,53.3C1376,64,1408,64,1424,64L1440,64L1440,320L1424,320C1408,320,1376,320,1344,320C1312,320,1280,320,1248,320C1216,320,1184,320,1152,320C1120,320,1088,320,1056,320C1024,320,992,320,960,320C928,320,896,320,864,320C832,320,800,320,768,320C736,320,704,320,672,320C640,320,608,320,576,320C544,320,512,320,480,320C448,320,416,320,384,320C352,320,320,320,288,320C256,320,224,320,192,320C160,320,128,320,96,320C64,320,32,320,16,320L0,320Z"></path></svg>